<mxfile host="65bd71144e">
    <diagram name="Page-1" id="8NoAi405iV9w-lXr4pfd">
        <mxGraphModel dx="2045" dy="1373" grid="1" gridSize="10" guides="1" tooltips="1" connect="1" arrows="1" fold="1" page="1" pageScale="1" pageWidth="850" pageHeight="1100" math="0" shadow="0">
            <root>
                <mxCell id="0"/>
                <mxCell id="1" parent="0"/>
                <mxCell id="44" value="" style="ellipse;whiteSpace=wrap;html=1;fontSize=10;fillColor=none;" vertex="1" parent="1">
                    <mxGeometry x="2" y="85" width="820" height="500" as="geometry"/>
                </mxCell>
                <mxCell id="11" style="edgeStyle=none;html=1;startArrow=classic;startFill=1;entryX=0;entryY=0.5;entryDx=0;entryDy=0;" edge="1" parent="1" source="4" target="9">
                    <mxGeometry relative="1" as="geometry">
                        <mxPoint x="275" y="335.47500000000014" as="targetPoint"/>
                    </mxGeometry>
                </mxCell>
                <mxCell id="4" value="devices" style="sketch=0;outlineConnect=0;gradientColor=none;fontColor=#545B64;strokeColor=none;fillColor=#879196;dashed=0;verticalLabelPosition=bottom;verticalAlign=top;align=center;html=1;fontSize=12;fontStyle=0;shape=mxgraph.aws4.illustration_devices;pointerEvents=1;aspect=fixed;" parent="1" vertex="1">
                    <mxGeometry x="135" y="300" width="100" height="70" as="geometry"/>
                </mxCell>
                <mxCell id="12" style="edgeStyle=none;html=1;startArrow=classic;startFill=1;entryX=0;entryY=0.25;entryDx=0;entryDy=0;" edge="1" parent="1" source="5" target="9">
                    <mxGeometry relative="1" as="geometry">
                        <mxPoint x="277.1500000000001" y="315.2025000000001" as="targetPoint"/>
                    </mxGeometry>
                </mxCell>
                <mxCell id="5" value="devices" style="sketch=0;outlineConnect=0;gradientColor=none;fontColor=#545B64;strokeColor=none;fillColor=#879196;dashed=0;verticalLabelPosition=bottom;verticalAlign=top;align=center;html=1;fontSize=12;fontStyle=0;shape=mxgraph.aws4.illustration_devices;pointerEvents=1;aspect=fixed;" parent="1" vertex="1">
                    <mxGeometry x="135" y="200" width="100" height="70" as="geometry"/>
                </mxCell>
                <mxCell id="10" style="edgeStyle=none;html=1;entryX=0;entryY=0.75;entryDx=0;entryDy=0;startArrow=classic;startFill=1;" edge="1" parent="1" source="6" target="9">
                    <mxGeometry relative="1" as="geometry">
                        <mxPoint x="277.1500000000001" y="353.94550000000004" as="targetPoint"/>
                    </mxGeometry>
                </mxCell>
                <mxCell id="6" value="devices" style="sketch=0;outlineConnect=0;gradientColor=none;fontColor=#545B64;strokeColor=none;fillColor=#879196;dashed=0;verticalLabelPosition=bottom;verticalAlign=top;align=center;html=1;fontSize=12;fontStyle=0;shape=mxgraph.aws4.illustration_devices;pointerEvents=1;aspect=fixed;" parent="1" vertex="1">
                    <mxGeometry x="135" y="410" width="100" height="70" as="geometry"/>
                </mxCell>
                <mxCell id="7" value="users" style="sketch=0;outlineConnect=0;gradientColor=none;fontColor=#545B64;strokeColor=none;fillColor=#879196;dashed=0;verticalLabelPosition=bottom;verticalAlign=top;align=center;html=1;fontSize=12;fontStyle=0;aspect=fixed;shape=mxgraph.aws4.illustration_users;pointerEvents=1;points=[];" parent="1" vertex="1">
                    <mxGeometry x="65" y="318.25" width="60" height="60" as="geometry"/>
                </mxCell>
                <mxCell id="31" style="edgeStyle=none;html=1;entryX=0.014;entryY=0.588;entryDx=0;entryDy=0;entryPerimeter=0;startArrow=classic;startFill=1;" edge="1" parent="1" source="9" target="14">
                    <mxGeometry relative="1" as="geometry"/>
                </mxCell>
                <mxCell id="9" value="" style="aspect=fixed;perimeter=ellipsePerimeter;html=1;align=center;shadow=0;dashed=0;spacingTop=3;image;image=img/lib/active_directory/internet_globe.svg;" vertex="1" parent="1">
                    <mxGeometry x="292" y="310" width="50" height="50" as="geometry"/>
                </mxCell>
                <mxCell id="28" style="edgeStyle=none;html=1;exitX=1;exitY=1;exitDx=0;exitDy=0;entryX=0.085;entryY=0.352;entryDx=0;entryDy=0;entryPerimeter=0;startArrow=classic;startFill=1;" edge="1" parent="1" source="14" target="22">
                    <mxGeometry relative="1" as="geometry"/>
                </mxCell>
                <mxCell id="14" value="" style="strokeColor=#dddddd;shadow=1;strokeWidth=1;rounded=1;absoluteArcSize=1;arcSize=2;" vertex="1" parent="1">
                    <mxGeometry x="362" y="302" width="100" height="56" as="geometry"/>
                </mxCell>
                <mxCell id="15" value="Network&#10;Load&#10;Balancer" style="sketch=0;dashed=0;connectable=0;html=1;fillColor=#757575;strokeColor=none;shape=mxgraph.gcp2.network_load_balancer;part=1;labelPosition=right;verticalLabelPosition=middle;align=left;verticalAlign=middle;spacingLeft=5;fontSize=12;" vertex="1" parent="14">
                    <mxGeometry y="0.5" width="32" height="32" relative="1" as="geometry">
                        <mxPoint x="5" y="-16" as="offset"/>
                    </mxGeometry>
                </mxCell>
                <mxCell id="18" value="Nginx" style="text;strokeColor=none;align=center;fillColor=none;html=1;verticalAlign=middle;whiteSpace=wrap;rounded=0;" vertex="1" parent="1">
                    <mxGeometry x="382" y="358" width="60" height="30" as="geometry"/>
                </mxCell>
                <mxCell id="20" value="" style="sketch=0;html=1;aspect=fixed;strokeColor=none;shadow=0;align=center;verticalAlign=top;fillColor=#3B8DF1;shape=mxgraph.gcp2.cloud_server" vertex="1" parent="1">
                    <mxGeometry x="512" y="227.5" width="50" height="44.5" as="geometry"/>
                </mxCell>
                <mxCell id="21" value="" style="sketch=0;html=1;aspect=fixed;strokeColor=none;shadow=0;align=center;verticalAlign=top;fillColor=#3B8DF1;shape=mxgraph.gcp2.cloud_server" vertex="1" parent="1">
                    <mxGeometry x="512" y="310" width="50" height="40" as="geometry"/>
                </mxCell>
                <mxCell id="22" value="" style="sketch=0;html=1;aspect=fixed;strokeColor=none;shadow=0;align=center;verticalAlign=top;fillColor=#3B8DF1;shape=mxgraph.gcp2.cloud_server" vertex="1" parent="1">
                    <mxGeometry x="512" y="388" width="50" height="44.5" as="geometry"/>
                </mxCell>
                <mxCell id="23" value="&lt;font style=&quot;font-size: 10px;&quot;&gt;Server MediaWiki 1&lt;/font&gt;" style="text;strokeColor=none;align=center;fillColor=none;html=1;verticalAlign=middle;whiteSpace=wrap;rounded=0;" vertex="1" parent="1">
                    <mxGeometry x="499.5" y="270" width="75" height="30" as="geometry"/>
                </mxCell>
                <mxCell id="24" value="&lt;font style=&quot;font-size: 10px;&quot;&gt;Server MediaWiki 2&lt;/font&gt;" style="text;strokeColor=none;align=center;fillColor=none;html=1;verticalAlign=middle;whiteSpace=wrap;rounded=0;" vertex="1" parent="1">
                    <mxGeometry x="499.5" y="350" width="75" height="30" as="geometry"/>
                </mxCell>
                <mxCell id="25" value="&lt;font style=&quot;font-size: 10px;&quot;&gt;Server MediaWiki 3&lt;/font&gt;" style="text;strokeColor=none;align=center;fillColor=none;html=1;verticalAlign=middle;whiteSpace=wrap;rounded=0;" vertex="1" parent="1">
                    <mxGeometry x="499.5" y="432.5" width="75" height="30" as="geometry"/>
                </mxCell>
                <mxCell id="29" style="edgeStyle=none;html=1;exitX=1;exitY=0.5;exitDx=0;exitDy=0;entryX=0.03;entryY=0.579;entryDx=0;entryDy=0;entryPerimeter=0;startArrow=classic;startFill=1;" edge="1" parent="1" source="14" target="21">
                    <mxGeometry relative="1" as="geometry">
                        <mxPoint x="462" y="323.37" as="sourcePoint"/>
                        <mxPoint x="527.95" y="375.29960000000005" as="targetPoint"/>
                    </mxGeometry>
                </mxCell>
                <mxCell id="30" style="edgeStyle=none;html=1;exitX=1;exitY=0;exitDx=0;exitDy=0;entryX=0.059;entryY=0.486;entryDx=0;entryDy=0;entryPerimeter=0;startArrow=classic;startFill=1;" edge="1" parent="1" source="14" target="20">
                    <mxGeometry relative="1" as="geometry">
                        <mxPoint x="452" y="289.5300000000001" as="sourcePoint"/>
                        <mxPoint x="533.5" y="265.29549999999995" as="targetPoint"/>
                    </mxGeometry>
                </mxCell>
                <mxCell id="32" value="" style="aspect=fixed;html=1;points=[];align=center;image;fontSize=12;image=img/lib/azure2/databases/Azure_Database_PostgreSQL_Server.svg;" vertex="1" parent="1">
                    <mxGeometry x="686.25" y="217.75" width="48" height="64" as="geometry"/>
                </mxCell>
                <mxCell id="33" value="" style="aspect=fixed;html=1;points=[];align=center;image;fontSize=12;image=img/lib/azure2/databases/Azure_Database_PostgreSQL_Server.svg;" vertex="1" parent="1">
                    <mxGeometry x="692" y="378.25" width="48" height="64" as="geometry"/>
                </mxCell>
                <mxCell id="34" value="&lt;font style=&quot;font-size: 10px;&quot;&gt;PostgresSQL&lt;/font&gt;" style="text;strokeColor=none;align=center;fillColor=none;html=1;verticalAlign=middle;whiteSpace=wrap;rounded=0;" vertex="1" parent="1">
                    <mxGeometry x="672.75" y="187.75" width="75" height="30" as="geometry"/>
                </mxCell>
                <mxCell id="35" value="&lt;span style=&quot;font-size: 10px;&quot;&gt;PostgresSQL_dump&lt;/span&gt;" style="text;strokeColor=none;align=center;fillColor=none;html=1;verticalAlign=middle;whiteSpace=wrap;rounded=0;" vertex="1" parent="1">
                    <mxGeometry x="663.5" y="432.5" width="93.5" height="30" as="geometry"/>
                </mxCell>
                <mxCell id="36" style="edgeStyle=none;html=1;exitX=0.938;exitY=0.357;exitDx=0;exitDy=0;startArrow=classic;startFill=1;exitPerimeter=0;entryX=-0.06;entryY=0.457;entryDx=0;entryDy=0;entryPerimeter=0;" edge="1" parent="1" source="20" target="32">
                    <mxGeometry relative="1" as="geometry">
                        <mxPoint x="562" y="252.87" as="sourcePoint"/>
                        <mxPoint x="614.95" y="199.99700000000007" as="targetPoint"/>
                    </mxGeometry>
                </mxCell>
                <mxCell id="37" style="edgeStyle=none;html=1;exitX=1.014;exitY=0.748;exitDx=0;exitDy=0;startArrow=classic;startFill=1;exitPerimeter=0;entryX=0.031;entryY=0.004;entryDx=0;entryDy=0;entryPerimeter=0;" edge="1" parent="1" source="20" target="33">
                    <mxGeometry relative="1" as="geometry">
                        <mxPoint x="591.9999999999999" y="278.13649999999996" as="sourcePoint"/>
                        <mxPoint x="716.4700000000001" y="281.74799999999993" as="targetPoint"/>
                    </mxGeometry>
                </mxCell>
                <mxCell id="39" style="edgeStyle=none;html=1;exitX=1.032;exitY=0.749;exitDx=0;exitDy=0;startArrow=classic;startFill=1;exitPerimeter=0;entryX=-0.036;entryY=0.449;entryDx=0;entryDy=0;entryPerimeter=0;" edge="1" parent="1" source="21" target="33">
                    <mxGeometry relative="1" as="geometry">
                        <mxPoint x="574.5000000000001" y="329.0675" as="sourcePoint"/>
                        <mxPoint x="708.3379999999999" y="462.4960000000001" as="targetPoint"/>
                    </mxGeometry>
                </mxCell>
                <mxCell id="40" style="edgeStyle=none;html=1;exitX=0.91;exitY=0.456;exitDx=0;exitDy=0;startArrow=classic;startFill=1;exitPerimeter=0;entryX=0.004;entryY=0.521;entryDx=0;entryDy=0;entryPerimeter=0;" edge="1" parent="1" source="21" target="32">
                    <mxGeometry relative="1" as="geometry">
                        <mxPoint x="568.45" y="336.96000000000004" as="sourcePoint"/>
                        <mxPoint x="700.2719999999999" y="416.986" as="targetPoint"/>
                    </mxGeometry>
                </mxCell>
                <mxCell id="41" style="edgeStyle=none;html=1;exitX=0.967;exitY=0.397;exitDx=0;exitDy=0;startArrow=classic;startFill=1;exitPerimeter=0;entryX=-0.003;entryY=0.896;entryDx=0;entryDy=0;entryPerimeter=0;" edge="1" parent="1" source="22" target="32">
                    <mxGeometry relative="1" as="geometry">
                        <mxPoint x="573.5999999999999" y="349.96000000000004" as="sourcePoint"/>
                        <mxPoint x="700.2719999999999" y="416.986" as="targetPoint"/>
                    </mxGeometry>
                </mxCell>
                <mxCell id="42" style="edgeStyle=none;html=1;exitX=0.986;exitY=0.642;exitDx=0;exitDy=0;startArrow=classic;startFill=1;exitPerimeter=0;entryX=0;entryY=0.652;entryDx=0;entryDy=0;entryPerimeter=0;" edge="1" parent="1" source="22" target="33">
                    <mxGeometry relative="1" as="geometry">
                        <mxPoint x="570.3499999999999" y="415.66650000000004" as="sourcePoint"/>
                        <mxPoint x="695.146" y="289.89399999999995" as="targetPoint"/>
                    </mxGeometry>
                </mxCell>
                <mxCell id="43" style="edgeStyle=none;html=1;exitX=0.415;exitY=-0.023;exitDx=0;exitDy=0;startArrow=classic;startFill=1;exitPerimeter=0;entryX=0.542;entryY=1.033;entryDx=0;entryDy=0;entryPerimeter=0;" edge="1" parent="1" source="33" target="32">
                    <mxGeometry relative="1" as="geometry">
                        <mxPoint x="721.9999999999999" y="359.9965" as="sourcePoint"/>
                        <mxPoint x="847.756" y="229.42399999999992" as="targetPoint"/>
                    </mxGeometry>
                </mxCell>
                <mxCell id="45" value="&lt;font style=&quot;font-size: 18px;&quot;&gt;Zabbix&lt;/font&gt;" style="ellipse;shape=cloud;whiteSpace=wrap;html=1;fontSize=10;fillColor=none;" vertex="1" parent="1">
                    <mxGeometry x="272" y="490" width="120" height="80" as="geometry"/>
                </mxCell>
                <mxCell id="47" value="&lt;font style=&quot;font-size: 18px;&quot;&gt;Ansible&lt;/font&gt;" style="ellipse;shape=cloud;whiteSpace=wrap;html=1;fontSize=10;fillColor=none;" vertex="1" parent="1">
                    <mxGeometry x="272" y="100" width="120" height="80" as="geometry"/>
                </mxCell>
                <mxCell id="48" value="&lt;font style=&quot;font-size: 18px;&quot;&gt;Terraform&lt;/font&gt;" style="ellipse;shape=cloud;whiteSpace=wrap;html=1;fontSize=10;fillColor=none;" vertex="1" parent="1">
                    <mxGeometry x="422" y="107.75" width="120" height="80" as="geometry"/>
                </mxCell>
                <mxCell id="49" value="&lt;font style=&quot;font-size: 18px;&quot;&gt;Python&lt;/font&gt;" style="ellipse;shape=cloud;whiteSpace=wrap;html=1;fontSize=10;fillColor=none;" vertex="1" parent="1">
                    <mxGeometry x="432" y="490" width="120" height="80" as="geometry"/>
                </mxCell>
            </root>
        </mxGraphModel>
    </diagram>
</mxfile>